<svg
  id="Layer_1"
  data-name="Layer 1"
  xmlns="http://www.w3.org/2000/svg"
  viewBox="0 0 80 80"
  width="50px"
>
<defs><style>.cls-1{fill:#1d1d1d;}</style></defs>
<title>account</title>
<path
    class="cls-1"
    d="M71.54,36.93v3.51a4.44,4.44,0,0,0-.1.62A25.6,25.6,0,0,1,71,44.31,30.06,30.06,0,0,1,46.72,68.23c-1.13.2-2.28.24-3.41.45H39.79a3.06,3.06,0,0,0-.51-.1,29.15,29.15,0,0,1-4.91-.76A30.06,30.06,0,0,1,12.08,33.08a29.11,29.11,0,0,1,9.14-16.42A29.31,29.31,0,0,1,45.68,9,28.61,28.61,0,0,1,61.3,16.13a29.51,29.51,0,0,1,9.79,17.39C71.29,34.65,71.34,35.8,71.54,36.93Zm-10,19A26.43,26.43,0,1,0,21.14,21.84c-9.66,11.8-6.45,26.78.44,34.05a20.57,20.57,0,0,1,4.65-8.69,21,21,0,0,1,8.22-5.57,12.63,12.63,0,1,1,15.35-20,12.25,12.25,0,0,1,4.34,9.2A12.55,12.55,0,0,1,48.67,41.6,20.91,20.91,0,0,1,61.55,55.92ZM41.73,65.16c.93-.06,2.06-.08,3.19-.23A26,26,0,0,0,57.16,60c1.48-1.08,1.46-1.11,1-2.94a17.09,17.09,0,0,0-33.56,1.57.55.55,0,0,0,.26.58A26.66,26.66,0,0,0,41.73,65.16Zm-.19-24.9a9.11,9.11,0,1,0-9.11-9.08A9.14,9.14,0,0,0,41.54,40.26Z"
  /></svg>
