<svg
  id="Layer_1"
  data-name="Layer 1"
  xmlns="http://www.w3.org/2000/svg"
  viewBox="0 0 80 80"
  width="50px"
>
<defs><style>.cls-1{fill:#b356db;}</style></defs>
<title>offer</title>
<path
    class="cls-1"
    d="M70.29,32.39v32a.55.55,0,0,0-.08.15A6.41,6.41,0,0,1,63.51,70H37.69a6.5,6.5,0,0,1-5.95-5.25c-.11-.62.09-1.33-.19-1.83s-.95-.83-1.41-1.28L15,46.46c-.91-.91-1.84-1.81-2.73-2.74a6.4,6.4,0,0,1,0-9.23Q22.93,23.8,33.62,13.12a2.07,2.07,0,0,1,1.22-.63l13.32-1.9A31.71,31.71,0,0,0,51.78,10h1a5,5,0,0,1,1.11.83C55,11.88,56,12.9,57,14c.25.26.39.25.63,0,.67-.7,1.36-1.39,2.06-2.07A9.27,9.27,0,0,1,61.86,10h.93c1.6,1,1.71,2.05.36,3.41-1,1-2,2-3,3-.26.26-.29.41,0,.68,1.09,1.06,2.15,2.15,3.24,3.22a1.9,1.9,0,0,1,.61,2,2.26,2.26,0,0,0,.59,2.44,5.1,5.1,0,0,1,.64.83C66.91,27.82,68.71,30,70.29,32.39ZM13.82,39.15a3,3,0,0,0,.92,2.09l18.1,18.09a2.88,2.88,0,0,0,4.24,0Q47.51,49,57.91,38.53a1,1,0,0,0,.32-.6Q59.3,30.31,60.4,22.7a.59.59,0,0,0-.16-.58c-.89-.88-1.77-1.76-2.65-2.65-.2-.21-.31-.2-.5,0-.64.66-1.29,1.32-2,2-.26.24-.2.39,0,.6s.64.62.95.95a1.77,1.77,0,0,1,0,2.44,1.71,1.71,0,0,1-2.47,0q-2.53-2.49-5-5a1.71,1.71,0,0,1,0-2.43,1.77,1.77,0,0,1,2.48,0c.31.29.62.6.91.91s.4.34.69,0c.59-.65,1.22-1.26,1.86-1.87.23-.22.25-.35,0-.59-.85-.83-1.69-1.67-2.53-2.52a.74.74,0,0,0-.72-.24c-5,.73-10,1.46-15.06,2.16a1.35,1.35,0,0,0-.8.41l-6,6q-7.29,7.29-14.58,14.58A3.17,3.17,0,0,0,13.82,39.15ZM63.17,28.63c-.07.16-.11.21-.11.26-.48,3.32-1,6.64-1.42,10a3,3,0,0,1-.9,1.84Q50.36,51.06,40,61.44a7.06,7.06,0,0,1-4.47,2.3c-.38,0-.38.18-.3.49a2.93,2.93,0,0,0,3,2.25H63.73a2.91,2.91,0,0,0,3-3q0-14.8,0-29.63a.83.83,0,0,0-.12-.55Z"
  /><path
    class="cls-1"
    d="M32.52,51.62a1.75,1.75,0,0,1-1.66-2.4c.59-1.84,1.21-3.66,1.82-5.49q3.16-9.51,6.34-19a1.82,1.82,0,0,1,2.1-1.42,1.78,1.78,0,0,1,1.26,2.46q-1.44,4.35-2.9,8.7L34.23,50.2A1.78,1.78,0,0,1,32.52,51.62Z"
  /><path
    class="cls-1"
    d="M41.31,37.46a5.27,5.27,0,1,1,5.31,5.25A5.28,5.28,0,0,1,41.31,37.46Zm5.25,1.73a1.75,1.75,0,0,0,1.76-1.73,1.75,1.75,0,1,0-3.5,0A1.75,1.75,0,0,0,46.56,39.19Z"
  /><path
    class="cls-1"
    d="M26.69,42.71a5.27,5.27,0,0,1,0-10.54,5.27,5.27,0,1,1,0,10.54Zm0-3.52a1.77,1.77,0,0,0,1.79-1.72,1.81,1.81,0,0,0-1.73-1.79,1.79,1.79,0,0,0-1.78,1.74A1.74,1.74,0,0,0,26.66,39.19Z"
  /></svg>
