<svg
  id="Layer_1"
  data-name="Layer 1"
  xmlns="http://www.w3.org/2000/svg"
  viewBox="0 0 80 80"
  width="50px"
>
<defs><style>.cls-1{fill:#177212;}</style></defs>
<title>booktable</title>
<path
    class="cls-1"
    d="M10,10.75l.13-.18a1.17,1.17,0,0,1,2.21.65c0,2.93,0,5.86,0,8.78,0,1.1,0,2.19,0,3.28,0,.39.12.52.5.49s1.2.21,1.52-.11.1-1,.1-1.52c0-3.51,0-7,0-10.54,0-.16,0-.31,0-.47a1.17,1.17,0,1,1,2.33,0c0,.39,0,.79,0,1.18q0,5.45,0,10.89c0,.42.05.66.55.6s1.16.2,1.47-.11.09-1,.09-1.46c0-3.54,0-7.07,0-10.61,0-.17,0-.35,0-.52A1.17,1.17,0,0,1,20.1,9.94a1.15,1.15,0,0,1,1.14,1.11c0,.53,0,1.06,0,1.58,0,3.52,0,7,0,10.55,0,.43.07.65.56.59s1.16.21,1.46-.11.09-1,.1-1.47V11.53a3.75,3.75,0,0,1,0-.58,1.16,1.16,0,0,1,2.3,0,3.75,3.75,0,0,1,0,.58c0,4.53,0,9.07,0,13.6a7.09,7.09,0,0,1-4,6.7c-.38.2-.33.47-.33.77V66.21a3.49,3.49,0,0,1-2.72,3.62l-.21.1H17.27c-2.33-.88-2.93-1.76-2.93-4.3q0-16.54,0-33.08a.75.75,0,0,0-.47-.8,7.16,7.16,0,0,1-3.72-4.86c0-.19,0-.4-.15-.55Zm6.68,38V65.94c0,1.08.39,1.63,1.15,1.64S19,67,19,65.93V31.66c0-1.14.14-1.31,1.18-1.73a4.84,4.84,0,0,0,3-3.3c.12-.39.05-.54-.41-.53q-5,0-9.9,0c-.49,0-.49.2-.38.56A4.86,4.86,0,0,0,15.57,30c.93.35,1.11.59,1.11,1.59Z"
  /><path
    class="cls-1"
    d="M65.9,69.93A4.56,4.56,0,0,1,64.1,69,3.68,3.68,0,0,1,63,66.22c0-5.49,0-11,0-16.46a1.32,1.32,0,0,0-.45-1.07c-.64-.59-1.26-1.22-1.86-1.86A5.85,5.85,0,0,1,59,42.71c0-5.31-.14-10.63,0-15.93a20.28,20.28,0,0,1,8.81-16.4c1-.71,1.51-.61,2.17.37V67a3.84,3.84,0,0,1-2.93,2.93Zm1.76-56.45c-.38.36-.64.59-.89.84a18.26,18.26,0,0,0-5.43,13.11c0,5,0,10,0,15.06a3.88,3.88,0,0,0,1.18,2.89c.71.7,1.39,1.43,2.12,2.1a2,2,0,0,1,.69,1.65c0,5.61,0,11.21,0,16.81,0,1.08.39,1.63,1.15,1.64s1.2-.55,1.2-1.65V13.48Z"
  /><path
    class="cls-1"
    d="M56.64,40A16.64,16.64,0,1,1,40,23.29,16.66,16.66,0,0,1,56.64,40Zm-2.34,0A14.3,14.3,0,1,0,40,54.23,14.32,14.32,0,0,0,54.3,39.93Z"
  /><path
    class="cls-1"
    d="M40,62.32a22.29,22.29,0,0,1-11.88-3.41,1.21,1.21,0,0,1-.59-1.72,1.19,1.19,0,0,1,1.78-.29,18.55,18.55,0,0,0,5.62,2.42C43,61.15,49.8,59,55.32,52.85c.19-.2.35-.43.55-.61a1.13,1.13,0,0,1,1.5-.08,1.17,1.17,0,0,1,.28,1.53,3.81,3.81,0,0,1-.24.32,22.07,22.07,0,0,1-15.32,8.21C41.39,62.29,40.69,62.32,40,62.32Z"
  /><path
    class="cls-1"
    d="M40,17.54a22.27,22.27,0,0,1,16,6.71,1.7,1.7,0,0,1,.53.76A1.14,1.14,0,0,1,56,26.32a1.11,1.11,0,0,1-1.4-.16c-.63-.59-1.23-1.2-1.9-1.74A19.75,19.75,0,0,0,38.13,20a20,20,0,0,0-6.94,1.94c-.09,0-.18.09-.27.12a1.17,1.17,0,0,1-1.59-.53,1.15,1.15,0,0,1,.59-1.57,22.14,22.14,0,0,1,10-2.4Z"
  /><path
    class="cls-1"
    d="M26.2,55a1.13,1.13,0,0,1-1.13,1.16,1.23,1.23,0,0,1-1.24-1.2A1.17,1.17,0,0,1,25,53.77,1.22,1.22,0,0,1,26.2,55Z"
  /><path
    class="cls-1"
    d="M29.23,39.51a10.73,10.73,0,0,1,6.33-9.39,1.18,1.18,0,1,1,1,2.11,8.38,8.38,0,0,0-5,7.64,1.18,1.18,0,0,1-1.21,1.23,1.19,1.19,0,0,1-1.13-1.3Z"
  /><path
    class="cls-1"
    d="M40,31.5a1.17,1.17,0,1,1,0-2.34,1.17,1.17,0,1,1,0,2.34Z"
  /></svg>
