<svg
  id="Layer_1"
  data-name="Layer 1"
  xmlns="http://www.w3.org/2000/svg"
  viewBox="0 0 80 80"
  width="50px"
>
<defs><style>.cls-1{fill:#ef901a;}</style></defs>
<title>whoweare</title>
<path
    class="cls-1"
    d="M22.75,65.84a5.84,5.84,0,0,1-3-2c-.54-.59-1.13-1.13-1.69-1.71a1.18,1.18,0,1,1,1.66-1.67c.8.78,1.58,1.58,2.37,2.37a1.63,1.63,0,0,0,2.57,0l1.7-1.71c.92-.92.87-1.64,0-2.6-2-2.2-4.21-4.26-6.32-6.39-1.84-1.87-3.7-3.71-5.57-5.56a9.15,9.15,0,0,0-.87-.78,1.47,1.47,0,0,0-1.8.12c-.79.74-1.56,1.49-2.29,2.29a1.52,1.52,0,0,0,.16,2.21c.82.84,1.66,1.66,2.49,2.5a1.18,1.18,0,0,1-.87,2,1.2,1.2,0,0,1-.82-.39c-.89-.89-1.8-1.76-2.66-2.67a3.89,3.89,0,0,1,0-5.33c.74-.81,1.52-1.59,2.33-2.33a3.79,3.79,0,0,1,3.93-.83.61.61,0,0,0,.76-.17C15.91,42.14,17,41,18.11,40c.26-.25.25-.38,0-.65a4.06,4.06,0,0,1,1.26-6.47c.34-.17.35-.27.19-.58a4.05,4.05,0,0,1,2.3-5.79c.35-.12.44-.26.38-.62A4,4,0,0,1,25,21.29c.31-.1.41-.2.36-.56a4.07,4.07,0,0,1,5.12-4.67c.16,0,.29.1.44,0,1-.92,2.25-.79,3.46-.58,2.5.45,5,.93,7.49,1.42.62.12,1.25,0,1.87.17a4.07,4.07,0,0,1,3.15,4.62c-.08.41,0,.56.42.7A4,4,0,0,1,50,26.91c-.06.35,0,.46.32.58A4,4,0,0,1,53.08,32c-.06.43,0,.58.45.73a4.06,4.06,0,0,1,1.71,6.5c-.32.38-.29.56,0,.88,1.08,1,2.12,2.09,3.17,3.16a.58.58,0,0,0,.75.16,3.82,3.82,0,0,1,4.25.82c.74.69,1.46,1.41,2.16,2.15a3.88,3.88,0,0,1,0,5.51q-6.33,6.38-12.72,12.71a3.91,3.91,0,0,1-5.56,0c-.7-.68-1.4-1.37-2.07-2.08a3.81,3.81,0,0,1-.86-4.33.54.54,0,0,0-.16-.7c-1.42-1.4-2.83-2.82-4.25-4.23a.63.63,0,0,0-.55-.27,27.63,27.63,0,0,1-3.75-.09c-.45,0-.9,0-1.35,0a1.78,1.78,0,0,0-1.25.57q-1.93,2-3.91,3.9a.54.54,0,0,0-.13.74,3.89,3.89,0,0,1-.73,4.46c-.69.72-1.41,1.41-2.11,2.12a5.07,5.07,0,0,1-2.14,1.15ZM38.84,25.23a4.1,4.1,0,0,1-3.7,4.17c-.36,0-.44.18-.49.49A4,4,0,0,1,31,33.53c-.28,0-.4.11-.45.42a4,4,0,0,1-3.67,3.71c-.29,0-.42.12-.46.45a4.06,4.06,0,0,1-5.81,3.32.55.55,0,0,0-.75.13c-1,1-2.06,2.1-3.12,3.11-.34.33-.31.51,0,.82q5.09,5.06,10.14,10.13c.3.3.46.28.74,0,1.27-1.3,2.58-2.57,3.85-3.87a4,4,0,0,1,2.61-1.19,22.11,22.11,0,0,1,3.64.09c1.72.13,3.28-.12,4.4-1.62a2.08,2.08,0,0,1,.21-.21A1.2,1.2,0,0,1,44,48.75a1.16,1.16,0,0,1,0,1.73c-.46.48-.94,1-1.44,1.38-.26.21-.3.32,0,.57q1.69,1.64,3.33,3.32c.26.27.39.18.6,0q5.13-5.13,10.27-10.25c.25-.25.28-.38,0-.64-.94-.91-1.86-1.85-2.79-2.78-.71-.71-.71-.71-1.43,0a1.26,1.26,0,0,1-1.28.39,1.18,1.18,0,0,1-.43-2c.86-.89,1.76-1.73,2.61-2.63A1.73,1.73,0,0,0,51,35.28c-.34.29-.64.63-1,.94a1.19,1.19,0,0,1-1.81.09,1.21,1.21,0,0,1,.15-1.77c.64-.65,1.31-1.29,1.94-2a1.73,1.73,0,0,0-2.46-2.43c-.38.34-.73.71-1.09,1.07a1.24,1.24,0,0,1-.69.42,1.17,1.17,0,0,1-1.07-2c.73-.76,1.51-1.48,2.23-2.26A1.73,1.73,0,0,0,44.75,25c-.37.34-.72.72-1.08,1.07A1.2,1.2,0,1,1,42,24.33c.65-.65,1.31-1.29,2-1.95a1.74,1.74,0,1,0-2.42-2.49c-1,1-2,2-3,3a.46.46,0,0,0-.09.65A4.08,4.08,0,0,1,38.84,25.23ZM50.1,63.37a1.79,1.79,0,0,0,1.24-.58L63.8,50.34a1.57,1.57,0,0,0,0-2.43c-.57-.59-1.16-1.17-1.75-1.75a1.66,1.66,0,0,0-2.73,0l-6,6L47,58.45A1.6,1.6,0,0,0,47,61c.62.63,1.25,1.25,1.87,1.87A1.7,1.7,0,0,0,50.1,63.37ZM30.57,31.19a1.73,1.73,0,0,0,1.24-3C30.4,26.81,29,25.4,27.56,24a1.73,1.73,0,1,0-2.44,2.45c1.39,1.41,2.79,2.8,4.19,4.2A1.72,1.72,0,0,0,30.57,31.19Zm4.17-4.13a1.7,1.7,0,0,0,1.66-1.31,1.22,1.22,0,0,0-.81-1.6,9.58,9.58,0,0,1-5.13-5.29.77.77,0,0,0-.52-.49A1.74,1.74,0,0,0,28,19a1.67,1.67,0,0,0,.08,2.07c1.85,1.89,3.73,3.74,5.61,5.6A1.43,1.43,0,0,0,34.74,27.06Zm-6.56,6.53a1.4,1.4,0,0,0-.35-1c-1.18-1.21-2.35-2.42-3.58-3.57a1.67,1.67,0,0,0-2.29.14,1.64,1.64,0,0,0-.13,2.24A43.92,43.92,0,0,0,25.44,35a1.56,1.56,0,0,0,1.83.14A1.65,1.65,0,0,0,28.18,33.59Zm-4.13,4.16a1.36,1.36,0,0,0-.24-.89A7.41,7.41,0,0,0,22,35.06a1.66,1.66,0,0,0-2.18.36,1.72,1.72,0,0,0,0,2.21,13.23,13.23,0,0,0,1.46,1.44,1.59,1.59,0,0,0,1.81.21A1.65,1.65,0,0,0,24.05,37.75Zm15.25-19c-2.18-.37-4.2-.88-6.27-1.11-.43-.05-.43.19-.31.5A7.71,7.71,0,0,0,36,21.74a.25.25,0,0,0,.36,0Z"
  /><path
    class="cls-1"
    d="M37,5.66a1.47,1.47,0,0,1,.84,1.52c0,1.59,0,3.17,0,4.76,0,.85-.47,1.37-1.19,1.36A1.21,1.21,0,0,1,35.45,12c0-1.57,0-3.14,0-4.7a1.6,1.6,0,0,1,.83-1.6Z"
  /><path
    class="cls-1"
    d="M16.27,7.26a1.15,1.15,0,0,1,.62-1.13,1.1,1.1,0,0,1,1.27.11c.31.26.59.56.88.85,1.17,1.16,2.33,2.31,3.49,3.48a1.18,1.18,0,0,1,.23,1.5,1.14,1.14,0,0,1-1.31.53,1.32,1.32,0,0,1-.64-.4l-4.1-4.1A1.19,1.19,0,0,1,16.27,7.26Z"
  /><path
    class="cls-1"
    d="M50.35,11.4a1.1,1.1,0,0,1,.38-.81c1.4-1.4,2.8-2.81,4.21-4.2a1.17,1.17,0,0,1,1.72,0,1.2,1.2,0,0,1-.06,1.73l-4.2,4.19a1.16,1.16,0,0,1-1.35.28A1.14,1.14,0,0,1,50.35,11.4Z"
  /><path
    class="cls-1"
    d="M14.87,58.58a1.17,1.17,0,0,1-1.17-1.16,1.21,1.21,0,0,1,1.19-1.2,1.19,1.19,0,0,1,1.16,1.17A1.16,1.16,0,0,1,14.87,58.58Z"
  /><path
    class="cls-1"
    d="M46.93,47.05a1.15,1.15,0,0,1-1.18-1.14,1.17,1.17,0,0,1,1.17-1.21,1.21,1.21,0,0,1,1.19,1.15A1.19,1.19,0,0,1,46.93,47.05Z"
  /></svg>
