<svg
  id="Layer_1"
  data-name="Layer 1"
  xmlns="http://www.w3.org/2000/svg"
  viewBox="0 0 80 80"
  width="50px"
>
<defs><style>.cls-1{fill:#ba244f;}</style></defs>
<title>order</title>
<path
    class="cls-1"
    d="M43,9.53c3.4,0,6.81,0,10.21,0,3,0,4.52,1.58,4.53,4.59,0,4.55,0,9.11,0,13.67a1.58,1.58,0,0,0,1.17,1.81,4.23,4.23,0,0,1,1.85,6.61,1.12,1.12,0,0,0,0,1.67,4.26,4.26,0,0,1-2,6.7c-.92.34-1,.8-1,1.6q0,4,0,8c0,2.91-1.54,4.41-4.47,4.47-.31,0-.63,0-.94,0-2.57-.19-5-.42-5.57,3.2-.28,1.68-1.87,2.9-3.44,3.71-1,.48-1.46,1-1.3,2.13.19,1.39-.53,1.81-1.85,1.81q-10-.06-20,0c-1.26,0-1.79-.39-1.78-1.72,0-5.55-.24-11.12.1-16.65.25-4.1,1.27-8.16,2-12.23.88-5.16,1.88-10.3,2.67-15.47.41-2.72,1.4-4.71,4.4-5,.7-.08.67-.51.67-1,0-1.21,0-2.41,0-3.62a4,4,0,0,1,4.23-4.25C36,9.49,39.48,9.53,43,9.53ZM28.23,33.6c0-3.93,0-7.86,0-11.78,0-.46.33-1.14-.36-1.36a1.75,1.75,0,0,0-1.61.44,2.89,2.89,0,0,0-.94,1.91c-.85,5-1.57,10-2.66,15a114,114,0,0,0-2.29,28.54c0,.81.14,1.24,1.11,1.23q8.71,0,17.43,0c.88,0,1.28-.29,1.17-1.18-.15-1.11.33-1.67,1.4-2.06A7,7,0,0,0,45.54,60c.4-1.08.11-1.37-1-1.35q-4.54.08-9.11,0c-1,0-1.42.32-1.66,1.34a8.62,8.62,0,0,1-3.27,4.85c-.59.46-.91.26-1.26-.25s-.67-.81,0-1.29a7.26,7.26,0,0,0,3-5.63,3.83,3.83,0,0,1,.62-1.41c2.5-4.41,5-8.82,7.54-13.22.88-1.55.71-2.78-.45-3.58s-2.38-.52-3.56.79c-2.2,2.46-4.39,4.93-6.62,7.36-.28.3-.49,1.14-1.17.52-.43-.39-1.36-.66-.56-1.56.38-.43.19-1,.19-1.52Q28.24,39.33,28.23,33.6Zm5.93,6.18c1.32-1.53,2.4-2.68,4.15-2.68,2.88,0,5.76,0,8.63,0A2.84,2.84,0,0,1,49.86,40c0,.68,0,1.36,0,2,0,2.88-1.05,4.21-3.85,3.82-3.93-.54-6.33.84-7.56,4.52a1.07,1.07,0,0,1-.16.27c-.66,1-.3,1.21.75,1.2,3.82,0,7.64,0,11.46,0,1,0,1.31-.33,1.31-1.35q-.06-16.87,0-33.76c0-1-.29-1.32-1.31-1.3-4.14.05-8.27,0-12.41,0-1.25,0-2.89-.4-3.64.23s-.29,2.45-.3,3.73C34.14,26.05,34.16,32.69,34.16,39.78Zm-4,4.16A4.14,4.14,0,0,0,32.24,40c-.08-8.23,0-16.45-.06-24.68,0-1.31.35-1.87,1.78-1.86q9,.09,18.07,0c1.29,0,1.76.42,1.75,1.72q0,18.39,0,36.78c0,1.37-.5,1.83-1.85,1.81-4.56-.06-9.12,0-13.68-.06a2.59,2.59,0,0,0-2.67,1.57c-.75,1.34-.26,1.4.92,1.39,5.5,0,11,0,16.5,0,2.19,0,2.76-.58,2.76-2.82q0-19.72,0-39.45c0-2.31-.56-2.88-2.87-2.89H33.41c-2.76,0-3.22.46-3.22,3.17V43.94ZM42.34,39c.66,1.54.95,2.89.19,4.26-.13.23-.22.58.14.6,1.55.06,3.19.43,4.64-.16,1.12-.46.46-1.77.6-2.7a3.48,3.48,0,0,0,0-.79A1.14,1.14,0,0,0,46.61,39C45.25,39,43.9,39,42.34,39Zm17.31-5.62a3.8,3.8,0,0,0-.18-.71c-.27-.64-.72-1.38-1.41-1.25s-.24,1-.31,1.48a6.18,6.18,0,0,0,0,1.55c.06.46-.35,1.2.34,1.32s1-.5,1.27-1A2.35,2.35,0,0,0,59.65,33.41Zm-1.86,9.5c1.34-.6,2-1.4,1.85-2.65a2.14,2.14,0,0,0-1.85-2Z"
  /><path
    class="cls-1"
    d="M36.35,41.91a7.16,7.16,0,0,1,2.48,1.86,2.16,2.16,0,0,1-1,1.35,6.27,6.27,0,0,1-2.49-1.92A2.41,2.41,0,0,1,36.35,41.91Z"
  /><path
    class="cls-1"
    d="M42.86,30.2H38c-.41,0-.92.06-.9-.57,0-.46-.34-1.19.4-1.32s.82-.7,1-1.19a4.84,4.84,0,0,1,2.4-2.38c.5-.23.93-.36,1.16-1.06s1.67-.38,1.68-.23c.11,1.31,1.35,1.17,2,1.72a6.13,6.13,0,0,1,1.54,1.75c.31.56.34,1.25,1.24,1.43.62.12.3.89.3,1.38s-.48.46-.83.47Zm0-2a2.46,2.46,0,0,0,.47,0c.7-.15,2,.36,2-.39,0-1.14-1.27-1.51-2.36-1.57a2.72,2.72,0,0,0-1.35.33c-.55.27-1.28.66-1.12,1.33s.91.23,1.4.29A6,6,0,0,0,42.88,28.24Z"
  /></svg>
